{
    "asset" : {
        "generator" : "Khronos glTF Blender I/O v3.3.32",
        "version" : "2.0"
    },
    "extensionsUsed" : [
        "KHR_materials_transmission",
        "KHR_materials_specular",
        "KHR_materials_ior"
    ],
    "scene" : 0,
    "scenes" : [
        {
            "name" : "Scene",
            "nodes" : [
                0,
                1,
                2
            ]
        }
    ],
    "nodes" : [
        {
            "mesh" : 0,
            "name" : "Cylinder.004",
            "rotation" : [
                -0.0036577514838427305,
                0,
                0,
                0.9999933242797852
            ],
            "scale" : [
                0.16042032837867737,
                0.25268593430519104,
                0.19373342394828796
            ],
            "translation" : [
                2.2918364265933633e-05,
                1.2345561981201172,
                0.14389298856258392
            ]
        },
        {
            "mesh" : 1,
            "name" : "Cylinder.003",
            "scale" : [
                0.029158111661672592,
                0.029158111661672592,
                0.029158111661672592
            ],
            "translation" : [
                1.2455608157324605e-05,
                1.216364860534668,
                -0.13224615156650543
            ]
        },
        {
            "mesh" : 2,
            "name" : "Cylinder",
            "scale" : [
                0.22366487979888916,
                0.2538605332374573,
                0.20060302317142487
            ],
            "translation" : [
                1.234990941156866e-05,
                0.25232672691345215,
                0.0040661925449967384
            ]
        }
    ],
    "materials" : [
        {
            "doubleSided" : true,
            "name" : "Material.003",
            "pbrMetallicRoughness" : {
                "baseColorFactor" : [
                    0.800000011920929,
                    0.800000011920929,
                    0.800000011920929,
                    1
                ],
                "metallicFactor" : 0,
                "roughnessFactor" : 0.5
            }
        },
        {
            "doubleSided" : true,
            "name" : "Material.002",
            "pbrMetallicRoughness" : {
                "baseColorFactor" : [
                    0.21222996711730957,
                    0.42868998646736145,
                    0.7991028428077698,
                    1
                ],
                "metallicFactor" : 0,
                "roughnessFactor" : 0.5
            }
        },
        {
            "doubleSided" : true,
            "extensions" : {
                "KHR_materials_transmission" : {
                    "transmissionFactor" : 1
                },
                "KHR_materials_specular" : {
                    "specularColorFactor" : [
                        1,
                        1,
                        1
                    ]
                },
                "KHR_materials_ior" : {
                    "ior" : 1.4500000476837158
                }
            },
            "name" : "Material.001",
            "pbrMetallicRoughness" : {
                "metallicFactor" : 0,
                "roughnessFactor" : 0.5
            }
        }
    ],
    "meshes" : [
        {
            "name" : "Cylinder.005",
            "primitives" : [
                {
                    "attributes" : {
                        "POSITION" : 0,
                        "NORMAL" : 1
                    },
                    "indices" : 2,
                    "material" : 0
                }
            ]
        },
        {
            "name" : "Cylinder.003",
            "primitives" : [
                {
                    "attributes" : {
                        "POSITION" : 3,
                        "NORMAL" : 4
                    },
                    "indices" : 5,
                    "material" : 1
                }
            ]
        },
        {
            "name" : "Cylinder",
            "primitives" : [
                {
                    "attributes" : {
                        "POSITION" : 6,
                        "NORMAL" : 7
                    },
                    "indices" : 8,
                    "material" : 2
                }
            ]
        }
    ],
    "accessors" : [
        {
            "bufferView" : 0,
            "componentType" : 5126,
            "count" : 6610,
            "max" : [
                0.33870020508766174,
                0.13059140741825104,
                0.06708613783121109
            ],
            "min" : [
                -0.339020311832428,
                -0.06673979014158249,
                -1.651725172996521
            ],
            "type" : "VEC3"
        },
        {
            "bufferView" : 1,
            "componentType" : 5126,
            "count" : 6610,
            "type" : "VEC3"
        },
        {
            "bufferView" : 2,
            "componentType" : 5123,
            "count" : 39648,
            "type" : "SCALAR"
        },
        {
            "bufferView" : 3,
            "componentType" : 5126,
            "count" : 9993,
            "max" : [
                6.21828031539917,
                0.9773076772689819,
                11.435747146606445
            ],
            "min" : [
                -6.218286037445068,
                -2.7363064289093018,
                -2.0858705043792725
            ],
            "type" : "VEC3"
        },
        {
            "bufferView" : 4,
            "componentType" : 5126,
            "count" : 9993,
            "type" : "VEC3"
        },
        {
            "bufferView" : 5,
            "componentType" : 5123,
            "count" : 54864,
            "type" : "SCALAR"
        },
        {
            "bufferView" : 6,
            "componentType" : 5126,
            "count" : 7682,
            "max" : [
                0.9935951828956604,
                3.6746983528137207,
                0.9935951828956604
            ],
            "min" : [
                -0.9935951232910156,
                -0.9632371664047241,
                -0.9935951828956604
            ],
            "type" : "VEC3"
        },
        {
            "bufferView" : 7,
            "componentType" : 5126,
            "count" : 7682,
            "type" : "VEC3"
        },
        {
            "bufferView" : 8,
            "componentType" : 5123,
            "count" : 46080,
            "type" : "SCALAR"
        }
    ],
    "bufferViews" : [
        {
            "buffer" : 0,
            "byteLength" : 79320,
            "byteOffset" : 0,
            "target" : 34962
        },
        {
            "buffer" : 0,
            "byteLength" : 79320,
            "byteOffset" : 79320,
            "target" : 34962
        },
        {
            "buffer" : 0,
            "byteLength" : 79296,
            "byteOffset" : 158640,
            "target" : 34963
        },
        {
            "buffer" : 0,
            "byteLength" : 119916,
            "byteOffset" : 237936,
            "target" : 34962
        },
        {
            "buffer" : 0,
            "byteLength" : 119916,
            "byteOffset" : 357852,
            "target" : 34962
        },
        {
            "buffer" : 0,
            "byteLength" : 109728,
            "byteOffset" : 477768,
            "target" : 34963
        },
        {
            "buffer" : 0,
            "byteLength" : 92184,
            "byteOffset" : 587496,
            "target" : 34962
        },
        {
            "buffer" : 0,
            "byteLength" : 92184,
            "byteOffset" : 679680,
            "target" : 34962
        },
        {
            "buffer" : 0,
            "byteLength" : 92160,
            "byteOffset" : 771864,
            "target" : 34963
        }
    ],
    "buffers" : [
        {
            "byteLength" : 864024,
            "uri" : "data:application/octet-stream;base64,"
        }
    ]
}
